<?xml version="1.0" encoding="utf-8"?>
<!-- Generator: Adobe Illustrator 23.0.3, SVG Export Plug-In . SVG Version: 6.00 Build 0)  -->
<svg version="1.1" id="BG" xmlns="http://www.w3.org/2000/svg" xmlns:xlink="http://www.w3.org/1999/xlink" x="0px" y="0px"
	 viewBox="0 0 1214 941" style="enable-background:new 0 0 1214 941;" xml:space="preserve">
<style type="text/css">
	.st0{fill:none;stroke:#50778F;stroke-miterlimit:10;}
	.st1{fill:#D3D7DD;}
	.st2{fill:#E76A5A;}
	.st3{fill:#FEC054;}
	.st4{fill:#87C658;}
	.st5{fill:#FFFFFF;}
	.st6{fill:#E3E4E8;}
	.st7{fill:#6F7073;}
	.st8{fill:#D6D7D8;stroke:#A9ABAE;stroke-width:0.5;stroke-miterlimit:10;}
	.st9{fill:#A9ABAE;}
	.st10{fill:#D3D4D5;}
	.st11{fill:#FCFDF6;}
	.st12{fill:#ABABAB;}
	.st13{fill:#818385;}
	.st14{fill:#E7E7E7;}
	.st15{opacity:0.3;fill:#E7E7E7;enable-background:new    ;}
</style>
<polyline class="st0" points="63.5,453.8 63.5,396.9 301.5,396.9 301.5,453.8 "/>
<line class="st0" x1="182.8" y1="396.9" x2="182.8" y2="335.1"/>
<path class="st1" d="M1161.1,545.4V441.6c0-5.5-4.4-9.9-9.9-9.9c0,0-0.1,0-0.1,0H62.4c-5.5,0-9.9,4.4-9.9,9.9c0,0,0,0.1,0,0.1v103.8
	H1161.1z"/>
<circle class="st2" cx="1094.3" cy="448.8" r="7.7"/>
<circle class="st3" cx="1118" cy="448.8" r="7.7"/>
<circle class="st4" cx="1141.8" cy="448.8" r="7.7"/>
<path class="st5" d="M1161.1,536H53v120.9c0,1.1,4.4,2.2,9.9,2.2h1088.8c5.5,0,9.9-0.5,9.9-2.2L1161.1,536L1161.1,536z"/>
<rect x="53" y="493.5" class="st6" width="1108" height="45.3"/>
<path class="st6" d="M301.5,495.7c0.1,1.1-0.7,2.1-1.8,2.2c-0.1,0-0.3,0-0.4,0H65.8c-1.1,0.1-2.1-0.7-2.2-1.8c0-0.1,0-0.3,0-0.4
	v-34.2c-0.1-1.1,0.7-2.1,1.8-2.2c0.1,0,0.3,0,0.4,0h233.5c1.1-0.1,2.1,0.7,2.2,1.8c0,0.1,0,0.3,0,0.4V495.7L301.5,495.7z"/>
<rect x="90.6" y="501.8" class="st5" width="696.7" height="27.6"/>
<rect x="795.6" y="501.8" class="st5" width="181.1" height="27.6"/>
<path class="st7" d="M950.7,524.4c0.5,0.5,2.2,0.5,3.3-0.5l3.9-3.3c1.7,0.5,3.3,1.7,4.4,1.7c4.5,0.1,8.2-3.5,8.3-8
	c0-0.1,0-0.2,0-0.3c-0.1-4.5-3.8-8.2-8.3-8.3c-4.5-0.1-8.2,3.5-8.3,8c0,0.1,0,0.2,0,0.3c0,1.1,0.5,2.2,0.5,3.3l-3.9,3.3
	C950.2,522.2,950.2,523.9,950.7,524.4z M962.9,519.4c-3.3,0-6.1-2.2-6.1-5.5s2.8-5.5,6.1-5.5c2.9-0.2,5.3,2,5.5,4.9
	c0,0.2,0,0.4,0,0.6C969,516.7,966.2,519.5,962.9,519.4L962.9,519.4z"/>
<polygon class="st7" points="806.1,515.6 808.8,515.6 807.8,517.2 806.1,518.9 805,517.2 803.3,515.6 "/>
<ellipse transform="matrix(0.9985 -5.530046e-02 5.530046e-02 0.9985 -28.3906 5.1881)" class="st8" cx="79.6" cy="515.6" rx="18.8" ry="18.8"/>
<path class="st9" d="M68.5,515.6v0.5l0,0l8.8,8.9c0.3,0.5,0.9,0.6,1.4,0.3c0.1-0.1,0.2-0.2,0.3-0.3l0.6-0.5c0.5-0.3,0.6-0.9,0.3-1.4
	c-0.1-0.1-0.2-0.2-0.3-0.3l-5.6-6.1h14.4c0.9-0.1,1.6-0.8,1.6-1.7v-1.7c0-0.9-0.8-1.6-1.7-1.7H74.6l5-5c0.5-0.3,0.6-0.9,0.3-1.4
	c-0.1-0.1-0.2-0.2-0.3-0.3l-0.6-0.5c-0.3-0.5-0.9-0.6-1.4-0.3c-0.1,0.1-0.2,0.2-0.3,0.3l-8.8,8.8l0,0L68.5,515.6
	C68.5,515.6,68.5,515.6,68.5,515.6z"/>
<path class="st6" d="M335.7,495.7c0,1.7-0.5,2.2-2.2,2.2h-26c-1.1,0-1.7-1.1-1.7-2.2v-34.2c0-1.7,0.5-2.2,1.7-2.2h26
	c1.2,0.1,2.1,1,2.2,2.2V495.7L335.7,495.7z"/>
<polygon class="st9" points="328,475.3 321.4,475.3 321.4,468.7 318.6,468.7 318.6,475.3 312,475.3 312,478 318.6,478 318.6,484.7 
	321.4,484.7 321.4,478 328,478 "/>
<path class="st9" d="M776.8,515.6L776.8,515.6l-5,5c0,0-0.5,0.5-0.5,0l-0.5-0.5v-0.5l3.3-3.3h-7.2c-0.3,0-0.5-0.2-0.5-0.5
	c0,0,0,0,0,0V515c0-0.3,0.2-0.5,0.5-0.5c0,0,0,0,0,0h7.2l-2.8-2.8c0,0-0.5-0.5,0-0.5l0.5-0.5h0.5l4.4,4.4l0,0L776.8,515.6
	L776.8,515.6L776.8,515.6z"/>
<polygon class="st10" points="753.6,512.3 759.2,512.3 756.4,515.6 753.6,518.9 751.4,515.6 748.7,512.3 "/>
<g>
	<path d="M101.2,483.7v-10.8h1.5v10.3c0,0.4,0,0.7,0,1c0,0.3-0.1,0.6-0.1,0.8c0,0.2-0.1,0.5-0.2,0.7c-0.1,0.2-0.2,0.4-0.4,0.5
		c-0.2,0.2-0.4,0.3-0.6,0.4c-0.3,0.1-0.5,0.2-0.8,0.2c-0.4,0.1-0.7,0.1-1.1,0.1h-0.3l-0.2-1.2h0.6c0.3,0,0.5,0,0.7-0.1
		c0.2-0.1,0.3-0.1,0.5-0.3c0.1-0.1,0.2-0.3,0.2-0.5c0.1-0.2,0.1-0.4,0.1-0.6C101.2,484.2,101.2,484,101.2,483.7z"/>
	<path d="M108.9,485.4c-1.2,0.1-2.3-0.4-3.1-1.2c-0.8-1-1.2-2.2-1.1-3.4c-0.1-1.2,0.3-2.4,1.1-3.4c0.7-0.9,1.8-1.3,2.9-1.3
		c1,0,2,0.4,2.7,1.1c0.7,0.9,1.1,2,1,3.1c0,0.1,0,0.2,0,0.4s0,0.3,0,0.4H106c0,0.9,0.2,1.7,0.8,2.4c0.5,0.6,1.3,0.9,2.1,0.9
		c1,0,2-0.3,2.9-0.8l0.2,1.1C111,485.1,109.9,485.4,108.9,485.4z M110.2,477.9c-0.4-0.5-1-0.8-1.7-0.7c-0.7,0-1.3,0.3-1.7,0.8
		c-0.5,0.6-0.7,1.3-0.8,2h4.8C110.9,479.2,110.7,478.4,110.2,477.9z"/>
	<path d="M116.8,485.4c-0.6,0-1.1-0.1-1.7-0.2c-0.4-0.1-0.9-0.3-1.3-0.5l0.2-1.2c0.8,0.5,1.8,0.7,2.7,0.7c1.3,0,2-0.5,2.1-1.4
		c0-0.4-0.1-0.7-0.4-1c-0.5-0.3-1.1-0.6-1.7-0.8l-0.7-0.2c-0.6-0.2-1.2-0.5-1.7-1c-0.8-1-0.7-2.4,0.3-3.2c0,0,0,0,0,0
		c0.7-0.5,1.5-0.7,2.3-0.7c1,0,1.9,0.2,2.8,0.6l-0.4,1c-0.8-0.3-1.6-0.5-2.4-0.5c-0.5,0-0.9,0.1-1.3,0.3c-0.3,0.2-0.5,0.6-0.5,1
		c0,0.3,0.1,0.6,0.3,0.8c0.4,0.3,0.9,0.5,1.4,0.6l0.7,0.2c0.7,0.2,1.4,0.5,1.9,1c0.4,0.4,0.6,1,0.6,1.6c0,0.8-0.3,1.5-0.9,1.9
		C118.5,485.2,117.7,485.4,116.8,485.4z"/>
	<path d="M124.7,485.4c-0.6,0-1.1-0.1-1.7-0.2c-0.4-0.1-0.9-0.3-1.3-0.5l0.2-1.2c0.8,0.5,1.8,0.7,2.7,0.7c1.3,0,2-0.5,2.1-1.4
		c0-0.4-0.1-0.7-0.4-1c-0.5-0.3-1.1-0.6-1.7-0.8l-0.7-0.2c-0.6-0.2-1.2-0.5-1.7-1c-0.8-1-0.7-2.4,0.3-3.2c0,0,0,0,0,0
		c0.7-0.5,1.5-0.7,2.3-0.7c1,0,1.9,0.2,2.8,0.6l-0.4,1c-0.8-0.3-1.6-0.5-2.4-0.5c-0.5,0-0.9,0.1-1.3,0.3c-0.3,0.2-0.5,0.6-0.5,1
		c0,0.3,0.1,0.6,0.3,0.8c0.4,0.3,0.9,0.5,1.4,0.6l0.7,0.2c0.7,0.2,1.4,0.5,1.9,1c0.4,0.4,0.6,1,0.6,1.6c0,0.8-0.3,1.5-0.9,1.9
		C126.4,485.2,125.6,485.4,124.7,485.4z"/>
	<path d="M131.5,472.9v1.6h-1.4v-1.6H131.5z M131.5,476.2v9h-1.4v-9H131.5z"/>
	<path d="M137.9,485.4c-1.2,0.1-2.3-0.4-3.1-1.3c-0.8-1-1.2-2.2-1.1-3.4c0-1.2,0.4-2.5,1.1-3.4c0.8-0.9,1.9-1.4,3.1-1.3
		c0.5,0,0.9,0.1,1.4,0.2c0.4,0.1,0.7,0.2,1,0.5l-0.4,1.1c-0.6-0.3-1.3-0.5-2-0.5c-0.8,0-1.6,0.4-2.1,1c-0.5,0.8-0.8,1.7-0.8,2.6
		c-0.1,0.9,0.2,1.8,0.8,2.6c0.5,0.6,1.3,1,2.1,0.9c0.8,0,1.5-0.2,2.2-0.6l0.2,1.1C139.5,485.2,138.7,485.4,137.9,485.4z"/>
	<path d="M147.6,485.2c-0.1-0.4-0.2-0.7-0.2-1.1c-0.4,0.4-0.9,0.8-1.4,1c-0.5,0.2-1,0.3-1.6,0.3c-0.7,0-1.4-0.2-2-0.7
		c-0.5-0.5-0.8-1.2-0.8-1.9c0-0.8,0.3-1.6,1-2c0.9-0.5,1.9-0.8,3-0.8l0.8-0.1l0.8-0.1V479c0-0.5-0.1-1-0.4-1.4
		c-0.4-0.3-0.9-0.5-1.4-0.5c-0.9,0-1.9,0.2-2.7,0.7l-0.2-0.6l-0.2-0.5c0.5-0.2,0.9-0.4,1.4-0.5c0.5-0.1,1.1-0.2,1.7-0.2
		c0.9-0.1,1.7,0.2,2.4,0.7c0.6,0.7,0.8,1.6,0.8,2.5v6L147.6,485.2L147.6,485.2z M144.6,484.3c0.6,0,1.2-0.2,1.7-0.5
		c0.5-0.3,0.9-0.9,1-1.5v-1.5h-0.5h-0.6c-0.9,0-1.7,0.2-2.5,0.6c-0.5,0.3-0.7,0.8-0.7,1.4c0,0.4,0.1,0.8,0.4,1.1
		C143.8,484.1,144.2,484.3,144.6,484.3L144.6,484.3z"/>
	<path d="M151.9,476.1h-1l0.8-3.9h1.3L151.9,476.1z"/>
	<path d="M157.9,485.4c-0.6,0-1.1-0.1-1.7-0.2c-0.4-0.1-0.9-0.3-1.3-0.5l0.2-1.2c0.8,0.5,1.8,0.7,2.7,0.7c1.3,0,2-0.5,2.1-1.4
		c0-0.4-0.1-0.7-0.4-1c-0.5-0.3-1.1-0.6-1.7-0.8l-0.7-0.2c-0.6-0.2-1.2-0.5-1.7-1c-0.8-1-0.7-2.4,0.3-3.2c0,0,0,0,0,0
		c0.7-0.5,1.5-0.7,2.3-0.7c1,0,1.9,0.2,2.8,0.6l-0.4,1c-0.8-0.3-1.6-0.5-2.4-0.5c-0.5,0-0.9,0.1-1.4,0.3c-0.3,0.2-0.5,0.6-0.5,1
		c0,0.3,0.1,0.6,0.4,0.8c0.4,0.3,0.9,0.5,1.4,0.6l0.7,0.2c0.7,0.2,1.4,0.5,1.9,1c0.4,0.4,0.6,1,0.6,1.6c0,0.8-0.3,1.5-0.9,1.9
		C159.6,485.2,158.8,485.4,157.9,485.4z"/>
	<path d="M168.8,485.2h-1.5v-12.3h4c0.6,0,1.1,0.1,1.6,0.2c0.5,0.1,0.9,0.3,1.3,0.6c0.4,0.3,0.7,0.6,0.9,1c0.2,0.5,0.3,1,0.3,1.5
		c0,0.4,0,0.9-0.1,1.3c-0.1,0.4-0.2,0.7-0.4,1.1c-0.2,0.3-0.5,0.6-0.8,0.8c-0.4,0.2-0.9,0.4-1.3,0.5c-0.6,0.1-1.2,0.2-1.9,0.2
		c-0.6,0-1.2,0-2-0.1L168.8,485.2L168.8,485.2z M170.9,478.8c0.5,0,0.9,0,1.4-0.2c0.3-0.1,0.6-0.2,0.9-0.4c0.2-0.2,0.4-0.4,0.5-0.6
		c0.1-0.2,0.2-0.4,0.2-0.7c0-0.2,0-0.5,0-0.8c0-0.6-0.2-1.2-0.7-1.5c-0.6-0.4-1.2-0.5-1.9-0.5h-2.5v4.6L170.9,478.8z"/>
	<path d="M184.7,480.7c0.1,1.2-0.3,2.4-1.1,3.4c-0.8,0.9-1.9,1.4-3.1,1.3c-1.1,0-2.3-0.4-3-1.3c-1.5-2-1.5-4.8,0-6.8
		c0.8-0.9,1.9-1.4,3.1-1.3c1.1,0,2.3,0.4,3,1.3C184.3,478.2,184.7,479.5,184.7,480.7z M177.7,480.7c0,0.9,0.2,1.8,0.7,2.6
		c0.5,0.7,1.3,1,2.1,1c0.8,0,1.5-0.3,2-1c0.9-1.6,0.9-3.6,0-5.2c-1-1.1-2.7-1.3-3.8-0.3c-0.1,0.1-0.2,0.2-0.3,0.3
		C177.9,478.9,177.7,479.8,177.7,480.7L177.7,480.7z"/>
	<path d="M190.7,476.1c0.2,0,0.4,0,0.7,0v1.3c-0.2,0-0.4-0.1-0.7-0.1c-0.7,0-1.4,0.3-1.9,0.8c-0.5,0.5-0.7,1.3-0.7,2v5.1h-1.4
		c0-5.5,0-8.5,0-9h1.1l0.1,1.6c0.3-0.5,0.7-0.9,1.2-1.2C189.6,476.3,190.1,476.1,190.7,476.1z"/>
	<path d="M195.6,485.4c-0.7,0.1-1.4-0.2-1.9-0.6c-0.4-0.6-0.6-1.4-0.6-2.1v-5.4h-1.3l0.1-0.9l1.3-0.1l0.5-2.1h0.9v2.1h2.4v1h-2.5
		v5.2c0,0.5,0.1,1,0.3,1.5c0.3,0.3,0.7,0.5,1.1,0.4c0.4,0,0.8-0.1,1.2-0.1l0.1,1.1C196.6,485.3,196.1,485.4,195.6,485.4z"/>
	<path d="M202,473.6c-0.4-0.1-0.9,0.1-1.2,0.5c-0.3,0.5-0.4,1.1-0.3,1.7v0.4h2.2v1h-2.2v8h-1.4v-8h-1.5l0.1-0.9l1.4-0.1v-0.4
		c-0.1-0.9,0.2-1.8,0.6-2.5c0.5-0.6,1.3-0.9,2.1-0.8c0.5,0,0.9,0,1.4,0.1l-0.1,1.1C202.7,473.6,202.4,473.6,202,473.6z"/>
	<path d="M212,480.7c0.1,1.2-0.3,2.4-1.1,3.4c-0.8,0.9-1.9,1.4-3.1,1.3c-1.1,0-2.3-0.4-3-1.3c-1.5-2-1.5-4.8,0-6.8
		c0.8-0.9,1.9-1.4,3.1-1.3c1.1,0,2.3,0.4,3,1.3C211.7,478.2,212.1,479.5,212,480.7z M205.1,480.7c0,0.9,0.2,1.8,0.7,2.6
		c0.5,0.7,1.3,1,2.1,1c0.8,0,1.5-0.3,2-1c0.9-1.6,0.9-3.6,0-5.2c-1-1.1-2.7-1.3-3.8-0.3c-0.1,0.1-0.2,0.2-0.3,0.3
		C205.2,478.8,204.9,479.8,205.1,480.7L205.1,480.7z"/>
	<path d="M216.4,485.4c-0.7,0.1-1.4-0.2-1.9-0.7c-0.4-0.7-0.6-1.6-0.6-2.5v-9.5l1.4-0.1v9.1c0,0.4,0,0.7,0,0.9c0,0.2,0,0.4,0.1,0.7
		c0,0.2,0.1,0.3,0.1,0.5c0.1,0.1,0.1,0.2,0.2,0.3c0.1,0.1,0.2,0.2,0.4,0.2c0.2,0,0.4,0,0.5,0c0.3,0,0.7,0,1-0.1l0.1,1.1
		C217.3,485.3,216.8,485.4,216.4,485.4z"/>
	<path d="M220.2,472.9v1.6h-1.4v-1.6H220.2z M220.2,476.2v9h-1.4v-9H220.2z"/>
	<path d="M230.8,480.7c0.1,1.2-0.3,2.4-1.1,3.4c-0.8,0.9-1.9,1.4-3.1,1.3c-1.1,0-2.3-0.4-3-1.3c-1.5-2-1.5-4.8,0-6.8
		c0.8-0.9,1.9-1.4,3.1-1.3c1.1,0,2.3,0.4,3,1.3C230.4,478.2,230.8,479.5,230.8,480.7z M223.8,480.7c0,0.9,0.2,1.8,0.7,2.6
		c0.5,0.7,1.3,1,2.1,1c0.8,0,1.5-0.3,2-1c0.9-1.6,0.9-3.6,0-5.2c-1-1.1-2.7-1.3-3.8-0.3c-0.1,0.1-0.2,0.2-0.3,0.3
		C224,478.9,223.8,479.8,223.8,480.7L223.8,480.7z"/>
	<path d="M236.9,483.2c1.3,0.6,2.7,0.9,4.1,0.9c1.8,0,2.7-0.8,2.7-2.4c0-0.5-0.1-0.9-0.4-1.3c-0.4-0.4-1-0.7-1.5-0.8l-2.4-0.7
		c-1.8-0.5-2.8-1.5-2.8-3c-0.1-1,0.4-2,1.2-2.6c1-0.6,2.1-0.9,3.3-0.8c0.7,0,1.4,0.1,2.1,0.2c0.6,0.1,1.1,0.3,1.6,0.6l-0.4,1.2
		c-0.5-0.2-1-0.4-1.5-0.5c-0.6-0.2-1.2-0.2-1.8-0.2c-2,0-3,0.7-3,2.1c0,0.4,0.2,0.8,0.5,1.1c0.4,0.3,0.9,0.6,1.4,0.6l2.3,0.6
		c0.8,0.2,1.6,0.5,2.2,1.1c0.5,0.6,0.8,1.4,0.8,2.2c0.1,1.1-0.3,2.1-1.1,2.8c-0.9,0.7-2,1-3.1,0.9c-0.9,0-1.8-0.1-2.6-0.3
		c-0.6-0.1-1.2-0.4-1.8-0.7L236.9,483.2z"/>
	<path d="M248.6,472.9v1.6h-1.4v-1.6H248.6z M248.6,476.2v9h-1.4v-9H248.6z"/>
	<path d="M254.1,485.4c-0.7,0.1-1.4-0.2-1.9-0.6c-0.4-0.6-0.6-1.4-0.6-2.1v-5.4h-1.3l0.1-0.9l1.3-0.1l0.5-2.1h0.9v2.1h2.5v1H253v5.2
		c0,0.5,0.1,1,0.3,1.5c0.3,0.3,0.7,0.5,1.1,0.4c0.4,0,0.8-0.1,1.2-0.1l0.1,1.1C255.1,485.3,254.6,485.4,254.1,485.4z"/>
	<path d="M260.8,485.4c-1.2,0.1-2.3-0.4-3.1-1.2c-0.8-1-1.2-2.2-1.1-3.4c-0.1-1.2,0.3-2.4,1.1-3.4c0.7-0.9,1.8-1.3,2.9-1.3
		c1,0,2,0.4,2.7,1.1c0.7,0.9,1.1,2,1,3.1c0,0.1,0,0.2,0,0.4s0,0.3,0,0.4H258c0,0.9,0.2,1.7,0.8,2.4c0.5,0.6,1.3,0.9,2.1,0.9
		c1,0,2-0.3,2.9-0.8l0.2,1.1C263,485.1,261.9,485.4,260.8,485.4z M262.2,477.9c-0.4-0.5-1-0.8-1.7-0.7c-0.7,0-1.3,0.3-1.7,0.8
		c-0.5,0.6-0.7,1.3-0.8,2h4.8C262.8,479.2,262.6,478.4,262.2,477.9L262.2,477.9z"/>
</g>
<rect x="73.5" y="483" class="st9" width="2.2" height="1.7"/>
<rect x="78.4" y="467" class="st9" width="2.8" height="1.7"/>
<rect x="73.5" y="467" class="st9" width="2.2" height="1.7"/>
<rect x="78.4" y="483" class="st9" width="2.8" height="1.7"/>
<rect x="68.5" y="472.5" class="st9" width="1.7" height="2.2"/>
<rect x="68.5" y="476.9" class="st9" width="1.7" height="2.8"/>
<polygon class="st9" points="69.6,470.3 69.6,468.1 71.3,468.1 71.3,467 68.5,467 68.5,470.3 "/>
<rect x="84.5" y="476.9" class="st9" width="1.7" height="2.8"/>
<polygon class="st9" points="71.3,483 69.6,483 69.6,481.9 68.5,481.9 68.5,484.7 71.3,484.7 "/>
<polygon class="st9" points="84.5,481.9 84.5,483 82.9,483 82.9,484.7 85.6,484.7 85.6,481.9 "/>
<rect x="84.5" y="472.5" class="st9" width="1.7" height="2.2"/>
<polygon class="st9" points="82.9,468.1 84.5,468.1 84.5,470.3 85.6,470.3 85.6,467 82.9,467 "/>
<circle class="st9" cx="113.8" cy="515.6" r="9.4"/>
<path class="st11" d="M119.8,518.3h-1.7v-0.5h-0.6c-0.6,0-0.6-0.5-1.1-0.5H116l-0.6,0.5h-1.1c-0.6,0-0.6,0-0.6-0.5l0,0
	c0-0.5,0-0.5-0.6-0.5s-0.6,0-0.6-0.5v-0.5h-1.1c0-0.5-0.6-0.5-0.6-1.1V514l0.6-0.5h1.1c0.3,0,0.5,0.2,0.6,0.5c0,0,0,0,0,0
	c0,0.3,0.2,0.5,0.5,0.5c0,0,0,0,0,0l0,0v-1.1l0,0c0,0,0.6-0.5,0-0.5l0,0c0-0.3,0.2-0.5,0.5-0.5c0,0,0,0,0,0l0,0c0-0.5,0-0.5,0.6-0.5
	l0,0l0.6-0.5h-1.1c0-0.3,0.2-0.5,0.5-0.5c0,0,0,0,0,0c0.3,0,0.5-0.2,0.6-0.5c0,0,0,0,0,0c0-0.5,0,0-0.6-0.5c-0.3,0-0.5-0.2-0.6-0.5
	c0,0,0,0,0,0c-0.3,0-0.5-0.2-0.6-0.5c0,0,0,0,0,0h-0.6c0,0-0.6,0,0,0.5v0.5l0,0v0.5h-0.6l-0.6-0.5h-0.6c-0.6,0-0.6-0.5,0-0.5
	l0.6-0.5H111c-0.6,0-0.6,0-0.6,0.5h-1.1c-0.3,0-0.5-0.2-0.6-0.5c0,0,0,0,0,0l0,0l-0.6-0.5h-1.6v0.5l0,0c0,0,0-0.5,0.6,0
	c0.3,0,0.5,0.2,0.6,0.5c0,0,0,0,0,0c0,0.5,0.6,0.5,0,1.1l0,0v0.5h-0.6v1.7l0.6,0.5v0.5c0,0.3,0.2,0.5,0.5,0.5c0,0,0,0,0,0l0,0
	c0-0.5-0.6-0.5-0.6-1.1l0,0v0.5c0,0.5,0.6,0.5,0.6,1.1v0.5l0,0c0.3,0,0.5,0.2,0.6,0.5c0,0,0,0,0,0h1.1l0.6,0.5
	c0.3,0,0.5,0.2,0.6,0.5c0,0,0,0,0,0c0,0.3,0.2,0.5,0.5,0.5c0,0,0,0,0,0h1.1v0.5l0,0v0.5l0,0v0.5l0.6,0.5c0,0.3,0.2,0.5,0.5,0.5
	c0,0,0,0,0,0l0,0c-0.1,0.6-0.3,1.1-0.6,1.7v1.1c0,0.3-0.2,0.5-0.5,0.5c0,0,0,0,0,0h0.6l0.6-0.5c0.3,0,0.5-0.2,0.6-0.5c0,0,0,0,0,0
	h0.6l1.1-1.1l0,0c0.3,0,0.5-0.2,0.6-0.5c0,0,0,0,0,0V520c0-0.5,0.6-0.5,0.6-1.1C119.8,519.5,119.8,518.9,119.8,518.3L119.8,518.3
	L119.8,518.3z"/>
<path class="st11" d="M114.3,507.9L114.3,507.9l0.6,0.5c0.3,0,0.5,0.2,0.6,0.5c0,0,0,0,0,0l0,0l0.6,0.5l0.6,0.5h0.6V509l0,0v-0.5
	H116c-0.4,0.1-0.9-0.2-1.1-0.5L114.3,507.9L114.3,507.9z"/>
<path class="st11" d="M114.9,509c-0.3,0-0.5-0.2-0.6-0.5c0,0,0,0,0,0h-0.6L114.9,509c-0.6,0-0.6,0-0.6,0.5
	C114.9,509.5,114.9,509.5,114.9,509L114.9,509C114.9,509.5,115.4,509.5,114.9,509C115.4,509.5,115.4,509,114.9,509z"/>
<path class="st11" d="M114.3,515.6L114.3,515.6l0.6,0.5C114.9,515.6,114.9,515.6,114.3,515.6L114.3,515.6z"/>
<path class="st11" d="M116,515.6C115.4,515.6,116,516.1,116,515.6L116,515.6z"/>
<g>
	<path class="st12" d="M127.7,527.5l0.3-1.3c0.2,0.1,0.5,0.1,0.7,0.1c0.3,0,0.5-0.1,0.7-0.3c0.2-0.5,0.3-1,0.2-1.5V515h1.5v9.5
		c0.1,0.8-0.1,1.6-0.4,2.3c-0.4,0.6-1.1,0.9-1.8,0.8C128.5,527.7,128.1,527.6,127.7,527.5z M129.6,513.4v-1.8h1.5v1.8H129.6z"/>
	<path class="st12" d="M139.7,521.1l1.6,0.2c-0.2,0.9-0.7,1.6-1.4,2.2c-1.8,1.2-4.1,1-5.7-0.5c-0.8-0.9-1.2-2.2-1.2-3.4
		c-0.1-1.3,0.3-2.5,1.2-3.5c0.8-0.8,1.9-1.3,3-1.3c1.1-0.1,2.2,0.4,3,1.2c0.8,1,1.2,2.2,1.1,3.5c0,0.1,0,0.2,0,0.4h-6.7
		c0,0.8,0.3,1.6,0.8,2.3c0.5,0.5,1.2,0.8,1.9,0.8c0.5,0,1-0.1,1.4-0.4C139.2,522.2,139.5,521.7,139.7,521.1z M134.7,518.7h5
		c0-0.6-0.2-1.2-0.6-1.7c-0.5-0.6-1.2-0.9-1.9-0.9c-0.7,0-1.3,0.2-1.8,0.7C135,517.3,134.7,517.9,134.7,518.7L134.7,518.7z"/>
	<path class="st12" d="M142.6,521.3l1.5-0.2c0.1,0.5,0.3,1,0.7,1.4c0.5,0.3,1,0.5,1.6,0.5c0.6,0,1.1-0.1,1.6-0.4
		c0.3-0.2,0.5-0.6,0.5-1c0-0.3-0.2-0.6-0.4-0.8c-0.5-0.2-1-0.4-1.6-0.5c-0.8-0.2-1.6-0.4-2.3-0.7c-0.8-0.4-1.3-1.2-1.3-2.1
		c0-0.4,0.1-0.8,0.3-1.1c0.2-0.3,0.4-0.6,0.8-0.8c0.3-0.2,0.6-0.4,1-0.5c0.4-0.1,0.9-0.2,1.3-0.2c0.6,0,1.3,0.1,1.9,0.3
		c0.5,0.2,0.9,0.4,1.2,0.8c0.3,0.4,0.5,0.9,0.5,1.4l-1.5,0.2c0-0.4-0.3-0.8-0.6-1.1c-0.4-0.3-0.9-0.4-1.4-0.4c-0.5,0-1,0.1-1.5,0.3
		c-0.3,0.2-0.4,0.5-0.4,0.8c0,0.2,0.1,0.4,0.2,0.5c0.2,0.2,0.4,0.3,0.6,0.4c0.2,0.1,0.6,0.2,1.4,0.4c0.8,0.2,1.5,0.4,2.3,0.7
		c0.4,0.2,0.7,0.4,1,0.8c0.3,0.4,0.4,0.8,0.4,1.3c0,0.5-0.2,1-0.4,1.4c-0.3,0.5-0.8,0.8-1.3,1c-0.6,0.3-1.2,0.4-1.9,0.4
		c-0.9,0.1-1.9-0.2-2.7-0.7C143.1,522.9,142.7,522.2,142.6,521.3z"/>
	<path class="st12" d="M151.3,521.3l1.5-0.2c0.1,0.5,0.3,1,0.7,1.4c0.5,0.3,1,0.5,1.6,0.5c0.6,0,1.1-0.1,1.6-0.4
		c0.3-0.2,0.5-0.6,0.5-1c0-0.3-0.2-0.6-0.4-0.8c-0.5-0.2-1-0.4-1.6-0.5c-0.8-0.2-1.6-0.4-2.3-0.7c-0.8-0.4-1.3-1.2-1.3-2.1
		c0-0.4,0.1-0.8,0.3-1.1c0.2-0.3,0.4-0.6,0.8-0.8c0.3-0.2,0.6-0.4,1-0.5c0.4-0.1,0.9-0.2,1.3-0.2c0.6,0,1.3,0.1,1.9,0.3
		c0.5,0.2,0.9,0.4,1.2,0.8c0.3,0.4,0.5,0.9,0.5,1.4l-1.5,0.2c0-0.4-0.3-0.8-0.6-1.1c-0.4-0.3-0.9-0.4-1.4-0.4c-0.5,0-1,0.1-1.5,0.3
		c-0.3,0.2-0.4,0.5-0.4,0.8c0,0.2,0.1,0.4,0.2,0.5c0.2,0.2,0.4,0.3,0.6,0.4c0.2,0.1,0.6,0.2,1.4,0.4c0.8,0.2,1.5,0.4,2.3,0.7
		c0.4,0.2,0.7,0.4,1,0.8c0.3,0.4,0.4,0.8,0.4,1.3c0,0.5-0.2,1-0.4,1.4c-0.3,0.5-0.8,0.8-1.3,1c-0.6,0.3-1.2,0.4-1.9,0.4
		c-0.9,0.1-1.9-0.2-2.7-0.7C151.8,522.9,151.4,522.2,151.3,521.3z"/>
	<path class="st12" d="M160.6,513.3v-1.8h1.5v1.8H160.6z M160.6,524v-9h1.5v9H160.6z"/>
	<path class="st12" d="M170.3,520.7l1.5,0.2c-0.1,0.9-0.6,1.8-1.3,2.4c-0.7,0.6-1.6,0.9-2.5,0.9c-1.1,0.1-2.2-0.4-3-1.2
		c-0.8-1-1.2-2.2-1.1-3.5c0-0.9,0.1-1.7,0.5-2.6c0.3-0.7,0.8-1.3,1.5-1.6c0.7-0.4,1.4-0.6,2.1-0.5c0.9,0,1.7,0.2,2.4,0.7
		c0.6,0.5,1.1,1.3,1.2,2.1l-1.5,0.2c-0.1-0.5-0.4-1-0.8-1.4c-0.4-0.3-0.8-0.5-1.3-0.5c-0.7,0-1.4,0.3-1.9,0.8
		c-0.5,0.8-0.8,1.7-0.7,2.6c-0.1,0.9,0.2,1.9,0.7,2.6c0.4,0.5,1.1,0.8,1.8,0.8c0.6,0,1.1-0.2,1.5-0.5
		C170,522,170.3,521.4,170.3,520.7z"/>
	<path class="st12" d="M179,522.9c-0.5,0.4-1,0.8-1.6,1c-0.5,0.2-1.1,0.3-1.7,0.3c-0.8,0.1-1.6-0.2-2.3-0.7
		c-0.5-0.5-0.8-1.2-0.8-1.9c0-0.8,0.4-1.6,1.1-2.1c0.3-0.2,0.7-0.4,1.1-0.5c0.4-0.1,0.9-0.2,1.4-0.2c0.9-0.1,1.8-0.3,2.7-0.5
		c0-0.2,0-0.3,0-0.4c0.1-0.5-0.1-1-0.4-1.3c-0.5-0.4-1.1-0.6-1.7-0.5c-0.6,0-1.1,0.1-1.6,0.4c-0.4,0.3-0.7,0.8-0.8,1.3l-1.5-0.2
		c0.1-0.6,0.3-1.1,0.7-1.5c0.4-0.4,0.8-0.7,1.4-0.9c0.6-0.2,1.3-0.3,2-0.3c0.6,0,1.3,0.1,1.9,0.3c0.4,0.1,0.8,0.4,1.1,0.7
		c0.2,0.3,0.4,0.6,0.5,1c0.1,0.5,0.1,0.9,0.1,1.4v2c0,0.9,0,1.8,0.1,2.7c0.1,0.4,0.2,0.7,0.4,1.1h-1.6
		C179.1,523.6,179,523.3,179,522.9z M178.9,519.5c-0.8,0.3-1.6,0.5-2.5,0.6c-0.5,0-0.9,0.2-1.3,0.3c-0.2,0.1-0.5,0.3-0.6,0.5
		c-0.4,0.6-0.3,1.3,0.2,1.8c0.4,0.3,0.9,0.4,1.4,0.4c0.5,0,1.1-0.1,1.6-0.4c0.4-0.2,0.8-0.6,1-1.1c0.2-0.5,0.3-1,0.2-1.5
		L178.9,519.5L178.9,519.5z"/>
	<path class="st12" d="M182.8,527.5V515h1.4v1.2c0.3-0.4,0.7-0.8,1.1-1c0.5-0.2,1-0.4,1.5-0.3c0.7,0,1.4,0.2,2,0.6
		c0.6,0.4,1.1,1,1.3,1.7c0.3,0.8,0.5,1.6,0.4,2.4c0,0.9-0.2,1.7-0.5,2.5c-0.6,1.4-1.9,2.3-3.4,2.3c-0.5,0-0.9-0.1-1.4-0.3
		c-0.4-0.2-0.7-0.5-1-0.8v4.4L182.8,527.5L182.8,527.5z M184.2,519.6c-0.1,0.9,0.2,1.8,0.7,2.6c0.4,0.5,1,0.8,1.7,0.8
		c0.7,0,1.3-0.3,1.8-0.9c0.5-0.8,0.8-1.7,0.7-2.7c0.1-0.9-0.2-1.8-0.7-2.6c-0.4-0.5-1-0.9-1.7-0.9c-0.7,0-1.3,0.4-1.7,0.9
		C184.4,517.7,184.1,518.6,184.2,519.6z"/>
	<path class="st12" d="M191.9,519.5c-0.1-1.4,0.4-2.7,1.4-3.7c0.8-0.7,1.8-1,2.8-1c1.1,0,2.2,0.4,3,1.2c0.8,0.9,1.3,2.1,1.2,3.4
		c0,0.9-0.1,1.9-0.5,2.7c-0.3,0.7-0.9,1.2-1.5,1.5c-0.7,0.4-1.4,0.6-2.2,0.5c-1.1,0-2.3-0.4-3.1-1.2
		C192.2,522.1,191.8,520.8,191.9,519.5z M193.5,519.5c-0.1,0.9,0.2,1.8,0.8,2.6c0.9,1,2.5,1.2,3.6,0.2c0.1-0.1,0.2-0.2,0.2-0.2
		c0.6-0.8,0.8-1.7,0.8-2.6c0.1-0.9-0.2-1.8-0.8-2.5c-0.9-1-2.5-1.2-3.6-0.2c-0.1,0.1-0.2,0.2-0.2,0.2
		C193.7,517.7,193.4,518.6,193.5,519.5L193.5,519.5z"/>
	<path class="st12" d="M202.1,524v-9h1.4v1.4c0.2-0.5,0.6-0.9,1-1.3c0.3-0.2,0.6-0.3,1-0.3c0.6,0,1.1,0.2,1.6,0.5l-0.5,1.4
		c-0.3-0.2-0.7-0.3-1.1-0.3c-0.3,0-0.6,0.1-0.9,0.3c-0.3,0.2-0.5,0.5-0.6,0.8c-0.2,0.6-0.3,1.2-0.2,1.8v4.7H202.1L202.1,524z"/>
	<path class="st12" d="M211.3,522.7l0.2,1.3c-0.4,0.1-0.8,0.1-1.1,0.1c-0.4,0-0.9-0.1-1.3-0.3c-0.3-0.2-0.5-0.4-0.6-0.7
		c-0.2-0.6-0.2-1.2-0.2-1.8v-5.2h-1.1V515h1.1v-2.2l1.5-0.9v3.1h1.5v1.2h-1.5v5.3c0,0.3,0,0.6,0.1,0.8c0.1,0.1,0.1,0.2,0.3,0.3
		c0.2,0.1,0.3,0.1,0.5,0.1C210.8,522.7,211.1,522.7,211.3,522.7z"/>
	<path class="st12" d="M213.1,524v-7.8h-1.4V515h1.4v-1c0-0.5,0-0.9,0.2-1.3c0.1-0.4,0.4-0.8,0.8-1c0.5-0.3,1-0.4,1.6-0.4
		c0.5,0,1,0.1,1.4,0.1l-0.2,1.3c-0.3-0.1-0.6-0.1-0.9-0.1c-0.4,0-0.7,0.1-1,0.3c-0.2,0.3-0.3,0.7-0.3,1.1v0.9h1.8v1.2h-1.8v7.8
		H213.1L213.1,524z"/>
	<path class="st12" d="M217,519.5c-0.1-1.4,0.4-2.7,1.4-3.7c0.8-0.7,1.8-1,2.8-1c1.1,0,2.2,0.4,3,1.2c0.8,0.9,1.3,2.1,1.2,3.4
		c0,0.9-0.1,1.9-0.5,2.7c-0.3,0.7-0.9,1.2-1.5,1.5c-0.7,0.4-1.4,0.6-2.2,0.5c-1.1,0-2.2-0.4-3-1.2C217.4,522,216.9,520.8,217,519.5z
		 M218.6,519.5c-0.1,0.9,0.2,1.8,0.8,2.6c0.9,1,2.5,1.2,3.6,0.2c0.1-0.1,0.2-0.2,0.2-0.2c0.6-0.8,0.8-1.7,0.8-2.6
		c0.1-0.9-0.2-1.8-0.8-2.5c-0.9-1-2.5-1.2-3.6-0.2c-0.1,0.1-0.2,0.2-0.2,0.2C218.8,517.7,218.5,518.6,218.6,519.5L218.6,519.5z"/>
	<path class="st12" d="M227.2,524v-12.4h1.5V524H227.2z"/>
	<path class="st12" d="M231.1,513.3v-1.8h1.5v1.8H231.1z M231.1,524v-9h1.5v9H231.1z"/>
	<path class="st12" d="M234.4,519.5c-0.1-1.4,0.4-2.7,1.4-3.7c0.8-0.7,1.8-1,2.8-1c1.1,0,2.2,0.4,3,1.2c0.8,0.9,1.3,2.1,1.2,3.4
		c0,0.9-0.1,1.9-0.5,2.7c-0.3,0.7-0.9,1.2-1.5,1.5c-0.7,0.4-1.4,0.6-2.2,0.5c-1.1,0-2.2-0.4-3-1.2
		C234.8,522,234.3,520.8,234.4,519.5z M236,519.5c-0.1,0.9,0.2,1.8,0.8,2.6c0.9,1,2.5,1.2,3.6,0.2c0.1-0.1,0.2-0.2,0.2-0.2
		c0.6-0.8,0.8-1.7,0.8-2.6c0.1-0.9-0.2-1.8-0.8-2.5c-0.9-1-2.5-1.2-3.6-0.2c-0.1,0.1-0.2,0.2-0.2,0.2
		C236.2,517.7,235.9,518.6,236,519.5z"/>
	<path class="st12" d="M245.1,524v-1.7h1.7v1.7H245.1z"/>
	<path class="st12" d="M255.4,520.7l1.5,0.2c-0.1,0.9-0.6,1.8-1.3,2.4c-0.7,0.6-1.6,0.9-2.5,0.9c-1.1,0.1-2.2-0.4-3-1.2
		c-0.8-1-1.2-2.2-1.1-3.5c0-0.9,0.1-1.7,0.5-2.6c0.3-0.7,0.8-1.3,1.5-1.6c0.7-0.4,1.4-0.6,2.1-0.5c0.9,0,1.7,0.2,2.4,0.7
		c0.6,0.5,1.1,1.3,1.2,2.1l-1.5,0.2c-0.1-0.5-0.4-1-0.8-1.4c-0.4-0.3-0.8-0.5-1.3-0.5c-0.7,0-1.4,0.3-1.9,0.8
		c-0.5,0.8-0.8,1.7-0.7,2.6c-0.1,0.9,0.2,1.9,0.7,2.6c0.4,0.5,1.1,0.8,1.8,0.8c0.6,0,1.1-0.2,1.5-0.5
		C255.1,522,255.3,521.4,255.4,520.7z"/>
	<path class="st12" d="M257.6,519.5c-0.1-1.4,0.4-2.7,1.4-3.7c0.8-0.7,1.8-1,2.8-1c1.1,0,2.2,0.4,3,1.2c0.8,0.9,1.3,2.1,1.2,3.4
		c0,0.9-0.1,1.9-0.5,2.7c-0.3,0.7-0.9,1.2-1.5,1.5c-0.7,0.4-1.4,0.6-2.2,0.5c-1.1,0-2.2-0.4-3-1.2C258,522,257.5,520.8,257.6,519.5z
		 M259.2,519.5c-0.1,0.9,0.2,1.8,0.8,2.6c0.9,1,2.5,1.2,3.6,0.2c0.1-0.1,0.2-0.2,0.2-0.2c0.6-0.8,0.8-1.7,0.8-2.6
		c0.1-0.9-0.2-1.8-0.8-2.5c-0.9-1-2.5-1.2-3.6-0.2c-0.1,0.1-0.2,0.2-0.2,0.2C259.4,517.7,259.1,518.6,259.2,519.5z"/>
	<path class="st12" d="M267.9,524v-9h1.4v1.3c0.3-0.4,0.7-0.8,1.1-1.1c0.5-0.3,1-0.4,1.6-0.4c0.6,0,1.1,0.1,1.6,0.4
		c0.4,0.3,0.7,0.7,0.9,1.2c0.6-1,1.6-1.6,2.8-1.6c0.8,0,1.5,0.2,2.1,0.7c0.5,0.6,0.8,1.5,0.7,2.3v6.2h-1.5v-5.7c0-0.4,0-0.9-0.1-1.3
		c-0.1-0.3-0.3-0.5-0.5-0.7c-0.3-0.2-0.6-0.3-0.9-0.2c-0.6,0-1.2,0.2-1.6,0.6c-0.5,0.6-0.7,1.3-0.6,2v5.3h-1.5v-5.9
		c0-0.5-0.1-1.1-0.4-1.5c-0.3-0.4-0.8-0.6-1.2-0.5c-0.4,0-0.8,0.1-1.2,0.3c-0.4,0.2-0.6,0.6-0.8,1c-0.2,0.6-0.3,1.2-0.2,1.9v4.7
		H267.9z"/>
</g>
<g>
	<path class="st13" d="M819.9,517.6l0.2-1h3.8l-0.7,3.5c-0.5,0.3-1.1,0.6-1.6,0.7c-0.6,0.2-1.2,0.3-1.8,0.3
		c-1.1,0.1-2.1-0.3-2.8-1.2c-0.5-0.7-0.8-1.6-0.8-2.5c0-1,0.2-2,0.7-2.8c0.4-0.8,1-1.4,1.7-1.9c0.7-0.4,1.5-0.6,2.3-0.6
		c0.6,0,1.1,0.1,1.7,0.3c0.4,0.2,0.8,0.5,1.1,0.9c0.3,0.4,0.5,0.9,0.6,1.5l-1.1,0.1c-0.1-0.5-0.4-1-0.8-1.4
		c-0.4-0.3-0.9-0.5-1.5-0.5c-0.6,0-1.2,0.2-1.8,0.5c-0.6,0.4-1,0.9-1.3,1.5c-0.3,0.7-0.5,1.5-0.5,2.3c-0.1,0.7,0.2,1.4,0.6,2
		c0.5,0.5,1.1,0.7,1.8,0.7c0.9,0,1.7-0.3,2.4-0.7l0.4-1.8L819.9,517.6L819.9,517.6z"/>
	<path class="st13" d="M824.9,518.7c0-1.1,0.4-2.2,1.1-3c0.6-0.7,1.4-1,2.3-1c0.7,0,1.3,0.2,1.8,0.7c0.5,0.5,0.7,1.2,0.7,1.9
		c0,0.7-0.1,1.4-0.4,2c-0.3,0.6-0.7,1.1-1.2,1.4c-0.5,0.3-1.1,0.5-1.7,0.5c-0.5,0-0.9-0.1-1.3-0.3c-0.4-0.2-0.7-0.5-0.9-0.9
		C825,519.6,824.9,519.1,824.9,518.7z M826,518.5c0,0.5,0.1,1,0.4,1.3c0.3,0.3,0.7,0.5,1.1,0.5c0.2,0,0.5,0,0.7-0.1
		c0.2-0.1,0.4-0.2,0.6-0.4c0.2-0.2,0.4-0.4,0.5-0.6c0.3-0.6,0.5-1.2,0.5-1.9c0-0.5-0.1-0.9-0.4-1.3c-0.3-0.3-0.7-0.5-1.1-0.5
		c-0.3,0-0.6,0.1-0.9,0.2c-0.3,0.2-0.5,0.4-0.7,0.7c-0.2,0.3-0.4,0.7-0.5,1.1C826,517.8,826,518.2,826,518.5L826,518.5z"/>
	<path class="st13" d="M831.6,518.7c0-1.1,0.4-2.2,1.1-3c0.6-0.7,1.4-1,2.3-1c0.7,0,1.3,0.2,1.8,0.7c0.5,0.5,0.7,1.2,0.7,1.9
		c0,0.7-0.1,1.4-0.4,2c-0.3,0.6-0.7,1.1-1.2,1.4c-0.5,0.3-1.1,0.5-1.7,0.5c-0.5,0-0.9-0.1-1.3-0.3c-0.4-0.2-0.7-0.5-0.9-0.9
		C831.7,519.6,831.6,519.1,831.6,518.7z M832.7,518.5c0,0.5,0.1,1,0.4,1.3c0.3,0.3,0.7,0.5,1.1,0.5c0.2,0,0.5,0,0.7-0.1
		c0.2-0.1,0.4-0.2,0.6-0.4c0.2-0.2,0.4-0.4,0.5-0.6c0.3-0.6,0.5-1.2,0.5-1.9c0-0.5-0.1-0.9-0.4-1.3c-0.3-0.3-0.7-0.5-1.1-0.5
		c-0.3,0-0.6,0.1-0.9,0.2c-0.3,0.2-0.5,0.4-0.7,0.7c-0.2,0.3-0.4,0.7-0.5,1.1C832.7,517.8,832.7,518.2,832.7,518.5L832.7,518.5z"/>
	<path class="st13" d="M838,521.6l1.1,0.1c0,0.2,0,0.4,0.1,0.5c0.1,0.1,0.2,0.2,0.3,0.3c0.2,0.1,0.5,0.1,0.8,0.1
		c0.5,0,1-0.1,1.4-0.5c0.3-0.4,0.4-0.9,0.5-1.5l0.1-0.5c-0.4,0.5-1.1,0.8-1.8,0.8c-0.6,0-1.2-0.2-1.6-0.7c-0.5-0.6-0.7-1.3-0.6-2
		c0-0.7,0.2-1.3,0.5-1.9c0.3-0.5,0.7-1,1.2-1.3c0.4-0.3,0.9-0.4,1.4-0.5c0.8,0,1.5,0.4,1.9,1.2l0.2-1h1l-1.3,6
		c-0.1,0.5-0.3,1.1-0.5,1.5c-0.2,0.4-0.5,0.7-0.9,0.9c-0.4,0.2-0.9,0.3-1.4,0.3c-0.4,0-0.9-0.1-1.3-0.2c-0.3-0.1-0.6-0.3-0.8-0.6
		c-0.2-0.3-0.3-0.6-0.3-0.9C838,521.8,838,521.7,838,521.6z M839.4,518.3c0,0.3,0,0.7,0.1,1c0.1,0.3,0.3,0.5,0.5,0.7
		c0.2,0.2,0.5,0.2,0.7,0.2c0.4,0,0.7-0.1,1-0.4c0.4-0.3,0.7-0.7,0.8-1.1c0.2-0.5,0.3-1,0.3-1.5c0-0.5-0.1-0.9-0.4-1.2
		c-0.3-0.3-0.7-0.5-1.1-0.5c-0.3,0-0.5,0.1-0.8,0.2c-0.3,0.2-0.5,0.4-0.7,0.6c-0.2,0.3-0.4,0.6-0.5,1
		C839.4,517.7,839.4,518,839.4,518.3L839.4,518.3z"/>
	<path class="st13" d="M844.7,521l1.8-8.6h1.1l-1.8,8.6H844.7z"/>
	<path class="st13" d="M852.1,518.9l1,0.1c-0.2,0.6-0.5,1.1-1,1.5c-0.5,0.5-1.2,0.7-1.9,0.7c-0.4,0-0.9-0.1-1.3-0.3
		c-0.4-0.2-0.7-0.5-0.9-0.9c-0.2-0.4-0.3-0.9-0.3-1.4c0-0.7,0.2-1.4,0.5-2c0.3-0.6,0.7-1.1,1.2-1.4c0.5-0.3,1.1-0.5,1.6-0.5
		c0.7,0,1.3,0.2,1.8,0.7c0.5,0.5,0.7,1.2,0.7,1.9c0,0.3,0,0.6-0.1,0.9h-4.6c0,0.1,0,0.2,0,0.3c0,0.5,0.1,1,0.4,1.3
		c0.2,0.3,0.6,0.5,1,0.5c0.4,0,0.8-0.1,1.1-0.4C851.6,519.7,851.9,519.3,852.1,518.9z M849,517.4h3.5c0-0.1,0-0.2,0-0.2
		c0-0.4-0.1-0.9-0.4-1.2c-0.3-0.3-0.6-0.4-1-0.4c-0.5,0-0.9,0.2-1.2,0.5C849.4,516.3,849.1,516.8,849,517.4z"/>
</g>
<polygon class="st7" points="1116.4,513.4 1119.7,513.4 1118.6,515.6 1116.4,517.2 1114.7,515.6 1113.1,513.4 "/>
<polygon class="st13" points="1022,515.6 1022,506.2 1015.9,506.2 1015.9,515.6 1011.5,515.6 1015.3,520.6 1019.2,524.4 
	1023.1,520.6 1026.9,515.6 "/>
<path class="st13" d="M1056.7,511.2l-6.1,6.1v7.2h4.4v-7.2h4.4v7.2h4.4v-7.2l-6.1-6.1C1057.3,510.6,1056.7,510.6,1056.7,511.2z"/>
<path class="st13" d="M1066.1,515.6l-8.8-8.8h-0.6l-8.8,8.8v0.5l1.7,1.7l7.2-7.2h0.6l7.2,7.2L1066.1,515.6L1066.1,515.6
	L1066.1,515.6z"/>
<path class="st13" d="M1106.4,523.9c0,0.3-0.2,0.5-0.5,0.5c0,0,0,0,0,0h-21c-0.3,0-0.5-0.2-0.6-0.5c0,0,0,0,0,0v-16.6
	c0-0.3,0.2-0.5,0.5-0.5c0,0,0,0,0,0h21c0.3,0,0.5,0.2,0.6,0.5c0,0,0,0,0,0V523.9z"/>
<polygon class="st14" points="1100.3,513.4 1104.2,513.9 1100.9,516.7 1101.4,520.6 1098.1,518.9 1095.4,520.6 1095.4,516.7 
	1092.6,513.9 1096.5,513.4 1098.1,510.1 "/>
<path class="st15" d="M1084.9,524.4h6.1v-18.2h-6.1c-0.3,0-0.5,0.2-0.6,0.5c0,0,0,0,0,0v16.6
	C1084.3,524.4,1084.9,524.4,1084.9,524.4z"/>
<path class="st5" d="M110.8,310.1c2.9,1.4,6,2.1,9.2,2.1c4,0,6-1.8,6-5.5c0-1.1-0.3-2.1-1-2.9c-1-0.9-2.2-1.5-3.5-1.7l-5.5-1.4
	c-4.2-1.1-6.2-3.3-6.2-6.7c-0.2-2.3,0.9-4.5,2.7-5.8c2.2-1.4,4.8-2,7.4-1.9c1.6,0,3.1,0.2,4.7,0.5c1.3,0.3,2.5,0.8,3.6,1.5l-0.9,2.6
	c-1-0.5-2.1-0.9-3.3-1.2c-1.4-0.4-2.7-0.5-4.2-0.5c-4.5,0-6.7,1.6-6.7,4.7c0,0.9,0.3,1.9,1,2.5c0.9,0.7,2,1.2,3.1,1.5l5.2,1.3
	c1.9,0.4,3.7,1.2,5.1,2.5c1.2,1.4,1.9,3.2,1.7,5c0,2.8-0.9,4.9-2.6,6.3c-2,1.5-4.5,2.3-7,2.1c-2,0-4-0.2-5.9-0.7
	c-1.4-0.3-2.8-0.9-4.1-1.6L110.8,310.1z"/>
<path class="st5" d="M137.1,286.8v3.7H134v-3.7H137.1L137.1,286.8z M137.1,294.2v20.4H134v-20.3L137.1,294.2L137.1,294.2z"/>
<path class="st5" d="M149.5,315c-2,0-3.4-0.5-4.3-1.5c-1-1.4-1.4-3-1.3-4.7v-12.3h-3l0.1-2l2.9-0.3l1.1-4.7l2-0.1v4.7h5.7v2.3h-5.7
	v11.7c-0.1,1.1,0.1,2.3,0.7,3.3c0.6,0.7,1.5,1,2.4,1c0.9-0.1,1.8-0.2,2.6-0.3l0.1,2.5C151.7,314.8,150.6,315,149.5,315z"/>
<path class="st5" d="M164.6,315c-2.6,0.1-5.2-0.9-7-2.8c-1.8-2.2-2.7-4.9-2.6-7.7c-0.1-2.8,0.8-5.5,2.5-7.7c1.6-1.9,4-3,6.5-3
	c2.3-0.1,4.5,0.9,6,2.6c1.6,2,2.3,4.4,2.2,6.9c0,0.1,0,0.4,0,0.8s0,0.7,0,0.9h-14c-0.1,2,0.5,3.9,1.8,5.4c1.2,1.3,2.9,2,4.7,1.9
	c2.3,0,4.5-0.6,6.5-1.7l0.5,2.5C169.5,314.4,167,315,164.6,315z M167.7,298c-0.9-1.1-2.3-1.7-3.7-1.6c-1.5,0-2.9,0.6-3.9,1.7
	c-1.1,1.3-1.7,2.9-1.8,4.6H169C169.1,301,168.7,299.3,167.7,298L167.7,298z"/>
<path class="st5" d="M195.1,314.6h-3.2V290h-8.4v-2.8h20.1v2.8h-8.4V314.6L195.1,314.6z"/>
<path class="st5" d="M210,286.8v3.7h-3.1v-3.7H210z M210,294.2v20.4h-3.1v-20.3L210,294.2L210,294.2z"/>
<path class="st5" d="M222.4,315c-2,0-3.4-0.5-4.3-1.5c-1-1.4-1.4-3-1.3-4.7v-12.3h-3l0.1-2l2.9-0.3l1.1-4.7l2-0.1v4.7h5.7v2.3h-5.7
	v11.7c-0.1,1.1,0.1,2.3,0.7,3.3c0.6,0.7,1.5,1,2.4,1c0.9-0.1,1.8-0.2,2.6-0.3l0.1,2.5C224.6,314.8,223.5,315,222.4,315z"/>
<path class="st5" d="M234.5,315c-2,0-3.4-0.5-4.2-1.6c-0.8-1.1-1.2-2.9-1.2-5.5v-21.5l3.1-0.2v20.5c0,0.8,0,1.5,0,2
	c0,0.5,0.1,1,0.1,1.5c0,0.4,0.1,0.8,0.3,1.1c0.1,0.3,0.3,0.5,0.5,0.7c0.2,0.2,0.5,0.3,0.8,0.4c0.4,0.1,0.8,0.1,1.2,0.1
	c0.8,0,1.6-0.1,2.3-0.2l0.2,2.5C236.6,314.8,235.6,315,234.5,315z"/>
<path class="st5" d="M248.2,315c-2.6,0.1-5.2-0.9-7-2.8c-1.8-2.2-2.7-4.9-2.6-7.7c-0.1-2.8,0.8-5.5,2.5-7.7c1.6-1.9,4-3,6.5-3
	c2.3-0.1,4.5,0.9,6,2.6c1.6,2,2.3,4.4,2.2,6.9c0,0.1,0,0.4,0,0.8s0,0.7,0,0.9h-14c-0.1,2,0.5,3.9,1.8,5.4c1.2,1.3,2.9,2,4.7,1.9
	c2.3,0,4.5-0.6,6.5-1.7l0.5,2.5C253.1,314.4,250.7,315,248.2,315z M251.3,298c-0.9-1.1-2.3-1.7-3.7-1.6c-1.5,0-2.9,0.6-3.9,1.7
	c-1.1,1.3-1.7,2.9-1.8,4.6h10.7C252.8,301,252.3,299.3,251.3,298z"/>
</svg>
